<svg width="24" height="24" viewBox="0 0 24 24" fill="none" xmlns="http://www.w3.org/2000/svg">
<path d="M21.1513 9.66743C21.2127 9.66687 21.3017 9.66606 21.3943 9.66842C21.2363 9.00067 21.0088 8.35529 20.7131 7.77367C21.0204 6.89309 21.6318 4.75443 21.61 3.01049C20.9037 5.66655 19.443 8.15516 17.2489 10.1316C16.6032 10.7129 15.92 11.2267 15.2079 11.6723C15.1451 13.8576 14.5584 16.1383 12.8193 17.3379L12.7389 12.9111C11.7291 13.3025 10.6861 13.5782 9.6302 13.7374C9.86723 12.8274 10.1927 11.9361 10.6046 11.0787L5.94447 10.2737C7.41008 8.72124 9.78947 8.5003 11.9796 8.78506C12.5673 7.98335 13.2441 7.22936 14.012 6.53705C15.1051 5.55345 16.3053 4.76398 17.5702 4.16669C16.898 3.70344 16.1631 3.32465 15.3806 3.04596C15.3772 3.08408 15.3736 3.12097 15.3702 3.15551C15.3682 3.17603 15.3662 3.19573 15.3644 3.21437C15.2727 4.19948 13.8345 4.41506 13.0671 4.3432C12.3287 4.27456 10.7483 3.7576 10.8389 2.79019C10.8405 2.77369 10.8421 2.7554 10.8439 2.7357L10.8439 2.73553C10.8476 2.69425 10.8518 2.64681 10.8569 2.59683C9.44861 2.79883 8.14057 3.3113 7.00435 4.06268C7.01759 4.07384 7.03064 4.08489 7.04347 4.09574C7.05779 4.10786 7.07192 4.11982 7.08564 4.13138C7.85356 4.77865 7.36449 6.12734 6.82609 6.7655C6.30859 7.37898 4.91217 8.24183 4.15604 7.60367C4.12922 7.58107 4.1007 7.5579 4.07136 7.53406C4.02228 7.49419 3.9709 7.45245 3.92137 7.40836C3.18081 8.75669 2.75961 10.3053 2.75961 11.9522C2.75961 12.0185 2.76029 12.0845 2.76165 12.1505C2.81358 12.136 2.86155 12.1234 2.9001 12.1133C2.91545 12.1092 2.9294 12.1056 2.9414 12.1024C3.90346 11.845 4.8017 13.124 5.01513 13.9214C5.23017 14.7263 5.08431 16.2332 4.11743 16.4922C4.10133 16.4964 4.08226 16.5016 4.06091 16.5073L4.0607 16.5074C4.02679 16.5165 3.98714 16.5271 3.94449 16.5381C4.20438 17.0057 4.50276 17.4489 4.8353 17.8634L7.55487 14.3322C8.00747 13.7439 9.62215 15.1945 8.98829 15.7082L2.3894 21.0622L6.10749 19.2583C6.58244 19.6239 7.12359 19.9621 7.70668 20.2567C7.71348 20.2312 7.72012 20.2067 7.72633 20.1838L7.72643 20.1834C7.73268 20.1603 7.73849 20.1389 7.74363 20.1195C8.00264 19.1564 9.52402 19.0443 10.315 19.2566C11.1033 19.4679 12.3903 20.3351 12.134 21.296C12.1277 21.3193 12.1211 21.3438 12.1144 21.3692L12.1054 21.4026C12.1406 21.4031 12.1757 21.4033 12.2107 21.4033C13.7423 21.4033 15.1887 21.0391 16.4682 20.3925C16.4494 20.37 16.4311 20.348 16.4136 20.3269L16.4128 20.3259L16.4125 20.3256C16.4016 20.3125 16.3909 20.2997 16.3807 20.2873C15.7398 19.521 16.4697 18.0624 17.1277 17.5127C17.8071 16.9443 19.2196 16.5984 19.8664 17.3728L19.9141 17.4297C20.595 16.4739 21.1024 15.386 21.3905 14.2118C21.3129 14.214 21.2395 14.2143 21.1849 14.2144C21.1653 14.2145 21.1482 14.2146 21.1341 14.2147C20.1409 14.219 19.6679 12.7561 19.6642 11.9533C19.6604 11.151 20.1189 9.67311 21.111 9.66775C21.118 9.66771 21.1257 9.66765 21.1341 9.66758L21.1513 9.66743Z" fill="#D7DEF9"/>
</svg>
