<svg width="24" height="25" viewBox="0 0 24 25" fill="none" xmlns="http://www.w3.org/2000/svg">
<path d="M19.8083 7.45264C20.3083 6.65264 20.2083 5.75264 19.6083 5.05264L19.5083 4.95264C19.1083 4.55264 18.6083 4.35264 18.2083 4.35264C17.8083 4.35264 17.4083 4.45264 17.2083 4.65264C16.3083 4.15264 15.2083 3.95264 14.1083 3.95264C11.5083 4.05264 8.9083 5.25264 6.8083 7.35264C3.7083 10.4526 2.7083 14.7526 4.2083 17.7526C3.9083 18.0526 3.8083 18.4526 3.8083 18.7526C3.8083 19.2526 4.0083 19.6526 4.4083 20.0526L4.5083 20.1526C4.9083 20.5526 5.4083 20.7526 5.8083 20.7526C6.2083 20.7526 6.6083 20.6526 6.8083 20.4526C7.7083 20.9526 8.8083 21.1526 9.9083 21.1526C12.5083 21.1526 15.1083 19.9526 17.3083 17.8526C20.2083 14.7526 21.3083 10.4526 19.8083 7.45264Z" fill="#D7DEF9"/>
</svg>
