<svg width="24" height="25" viewBox="0 0 24 25" fill="none" xmlns="http://www.w3.org/2000/svg">
<path d="M23 15.882C22.7988 15.1747 15.4424 8.21394 13.8325 6.76565L14.9393 5.09281C15.0399 4.86827 14.9169 4.53146 14.5815 4.54269L10.2326 4.82336C10.1208 4.82336 10.009 4.83459 9.89716 4.72232L7.19163 1.2307C7.06865 0.893885 6.62145 1.02861 6.84505 1.01738L5.65998 5.32858C5.65998 5.44085 5.55936 5.55312 5.44756 5.56435L1.2551 7.06878C0.919705 7.19228 0.942065 7.52909 1.16566 7.7424L4.83267 10.1899C4.83267 10.3022 4.95565 10.4144 4.95565 10.5267L5.12335 14.9053C5.13453 15.2421 5.4811 15.4554 5.69352 15.2196L6.55437 14.5123C7.58292 15.6463 12.1779 19.7329 13.5194 20.8669C13.2959 20.7546 13.2176 17.7794 13.1058 17.2181C13.1058 17.3303 20.0038 21.8773 22.687 23C21.569 20.8669 18.2597 15.1298 18.0361 14.6807C17.8125 14.2317 22.8882 15.9943 23 15.882ZM18.1926 18.4643C16.2921 17.5661 12.0661 14.9277 11.8425 14.8155C11.6189 15.4891 11.8313 17.7682 11.8313 17.9927C11.2276 17.2854 8.65619 14.7706 7.4823 13.7713L9.17047 12.4016C9.28227 12.4016 9.39407 12.3904 9.50587 12.3904L13.6871 13.6815C13.9107 13.7826 14.2461 13.5468 14.112 13.2212L12.5021 9.12333C12.3903 9.01106 12.3791 8.89879 12.4909 8.78652L12.9828 8.04553C15.2859 9.85309 19.2771 13.6478 18.8523 13.5468C18.4051 13.4345 15.7442 12.9069 15.7442 12.9069C16.3927 14.4337 18.3044 18.2397 18.1926 18.4643Z" fill="#D7DEF9"/>
</svg>
