<svg width="24" height="24" viewBox="0 0 24 24" fill="none" xmlns="http://www.w3.org/2000/svg">
<path fill-rule="evenodd" clip-rule="evenodd" d="M12 2.30957C7.79103 2.30957 4.46301 5.63759 4.46301 9.84655V20.5158C4.46301 21.201 4.95243 21.6904 5.63761 21.6904H18.3624C19.0476 21.6904 19.537 21.201 19.537 20.5158V9.84655C19.537 5.63759 16.209 2.30957 12 2.30957ZM12 4.75665C10.0424 4.75665 8.37836 6.02912 7.69318 7.8889C7.5953 8.37831 7.69318 8.67196 7.98683 8.76984C8.28048 8.86772 8.67201 8.67196 8.76989 8.37831C9.25931 6.91007 10.5318 6.127 11.9021 6.127C13.2725 6.127 14.6429 7.10583 15.0344 8.37831C15.1323 8.67196 15.6217 8.86772 15.9153 8.76984C16.209 8.67196 16.4048 8.18254 16.3069 7.8889C15.6217 6.02912 13.9577 4.75665 12 4.75665ZM7.98683 19.2433C7.98683 19.6348 8.37836 19.9285 8.67201 19.9285H15.328C15.7196 19.9285 15.9153 19.6348 15.9153 19.2433C15.9153 18.8518 15.5238 18.5581 15.2302 18.5581H8.67201C8.28048 18.5581 7.98683 18.9497 7.98683 19.2433ZM16.6005 17.2856C16.9921 17.2856 17.2857 16.8941 17.2857 16.6005V10.8254C17.2857 10.4338 16.8942 10.1402 16.6005 10.1402H7.39953C7.008 10.1402 6.71436 10.5317 6.71436 10.8254V16.6005C6.71436 16.992 7.10589 17.2856 7.39953 17.2856H16.6005ZM12.9126 8.24328C12.9126 8.74728 12.504 9.15584 12 9.15584C11.496 9.15584 11.0875 8.74728 11.0875 8.24328C11.0875 7.73929 11.496 7.33073 12 7.33073C12.504 7.33073 12.9126 7.73929 12.9126 8.24328ZM10.1487 12.6636C10.1487 11.9784 9.56136 11.5869 9.07195 11.5869C8.48465 11.5869 7.99524 12.0763 7.99524 12.6636V14.817C7.99524 15.5022 8.58254 15.8937 9.07195 15.8937C9.75713 15.8937 10.1487 15.3064 10.1487 14.817V12.6636ZM13.0768 12.6636C13.0768 11.9784 12.4895 11.5869 12.0001 11.5869C11.5107 11.5869 10.9234 12.0763 10.9234 12.6636V14.817C10.9234 15.5022 11.5107 15.8937 12.0001 15.8937C12.6853 15.8937 13.0768 15.3064 13.0768 14.817V12.6636ZM14.9282 11.5869C15.4176 11.5869 16.0049 11.9784 16.0049 12.6636V14.817C16.0049 15.3064 15.6134 15.8937 14.9282 15.8937C14.4388 15.8937 13.8515 15.5022 13.8515 14.817V12.6636C13.8515 12.0763 14.3409 11.5869 14.9282 11.5869Z" fill="#D7DEF9"/>
</svg>
