<svg width="24" height="25" viewBox="0 0 24 25" fill="none" xmlns="http://www.w3.org/2000/svg">
<path fill-rule="evenodd" clip-rule="evenodd" d="M16.7 8.05264C17.8 9.55264 19.2 11.3526 19.4 14.1526C19.4 14.1526 19.5 14.7526 19.5 14.9526C19.5 18.8526 16.2 22.1526 12 22.1526C7.9 22.1526 4.5 18.9526 4.5 14.9526V14.4526C4.6 10.3526 6.7 9.25264 6.8 9.25264C6.9 9.15264 7.1 9.15264 7.2 9.25264C7.3 9.35264 7.4 9.45264 7.4 9.55264C7.4 9.65264 7.8 12.0526 9.5 12.4526C9.5 11.3526 9.5 9.75264 9.9 8.45264C10.5 6.35264 12 4.25264 13.8 3.05264C13.9 2.95264 14.1 2.95264 14.3 2.95264C14.4 3.05264 14.5 3.15264 14.5 3.35264C14.5 5.25264 15.5 6.55264 16.6 7.95264C16.7 7.95264 16.7 7.95264 16.7 8.05264ZM9 18.1526C9.4 19.9526 10.6 21.3526 12.7 20.8526C15.7 20.1526 15.5 16.6526 14.3 14.7526C13.1 12.7526 13 11.1526 13 10.6526C12.3 11.5526 11.1 13.8526 11.4 15.3526C11.7 16.5526 10.7 16.8526 9.8 15.0526C9.4 15.2526 8.7 16.7526 9 18.1526Z" fill="#D7DEF9"/>
</svg>
